<mxfile host="65bd71144e">
    <diagram id="tyMXFPb8nDpsB8v943Sl" name="PÃ¡gina-1">
        <mxGraphModel dx="662" dy="425" grid="1" gridSize="10" guides="1" tooltips="1" connect="1" arrows="1" fold="1" page="1" pageScale="1" pageWidth="827" pageHeight="1169" math="0" shadow="0">
            <root>
                <mxCell id="0"/>
                <mxCell id="1" parent="0"/>
                <mxCell id="4" value="" style="edgeStyle=none;html=1;" edge="1" parent="1" source="2" target="3">
                    <mxGeometry relative="1" as="geometry"/>
                </mxCell>
                <mxCell id="2" value="&lt;font style=&quot;font-size: 15px;&quot; color=&quot;#000000&quot;&gt;INICIO&lt;/font&gt;" style="ellipse;whiteSpace=wrap;html=1;fillColor=#76608a;fontColor=#ffffff;strokeColor=#432D57;" vertex="1" parent="1">
                    <mxGeometry x="250" y="30" width="120" height="80" as="geometry"/>
                </mxCell>
                <mxCell id="13" value="" style="edgeStyle=none;html=1;fontSize=18;fontColor=#000000;" edge="1" parent="1" source="3" target="12">
                    <mxGeometry relative="1" as="geometry"/>
                </mxCell>
                <mxCell id="3" value="&lt;font style=&quot;font-size: 18px;&quot; color=&quot;#000000&quot;&gt;x&lt;/font&gt;" style="shape=parallelogram;perimeter=parallelogramPerimeter;whiteSpace=wrap;html=1;fixedSize=1;fillColor=#6d8764;fontColor=#ffffff;strokeColor=#3A5431;" vertex="1" parent="1">
                    <mxGeometry x="230" y="140" width="160" height="70" as="geometry"/>
                </mxCell>
                <mxCell id="12" value="&lt;font color=&quot;#000000&quot;&gt;r=0&lt;/font&gt;" style="rhombus;whiteSpace=wrap;html=1;fontSize=18;fillColor=#d5e8d4;strokeColor=#82b366;" vertex="1" parent="1">
                    <mxGeometry x="255" y="250" width="110" height="100" as="geometry"/>
                </mxCell>
                <mxCell id="14" value="" style="endArrow=none;html=1;fontSize=18;fontColor=#000000;exitX=1;exitY=0.5;exitDx=0;exitDy=0;" edge="1" parent="1" source="12">
                    <mxGeometry width="50" height="50" relative="1" as="geometry">
                        <mxPoint x="320" y="450" as="sourcePoint"/>
                        <mxPoint x="410" y="300" as="targetPoint"/>
                    </mxGeometry>
                </mxCell>
                <mxCell id="15" value="" style="endArrow=none;html=1;fontSize=18;fontColor=#000000;exitX=0;exitY=0.5;exitDx=0;exitDy=0;" edge="1" parent="1" source="12">
                    <mxGeometry width="50" height="50" relative="1" as="geometry">
                        <mxPoint x="320" y="450" as="sourcePoint"/>
                        <mxPoint x="210" y="300" as="targetPoint"/>
                    </mxGeometry>
                </mxCell>
                <mxCell id="16" value="&lt;font style=&quot;font-size: 16px;&quot; color=&quot;#000000&quot;&gt;nsj=IMPAR&lt;/font&gt;" style="rounded=0;whiteSpace=wrap;html=1;fontSize=18;fillColor=#b0e3e6;strokeColor=#0e8088;" vertex="1" parent="1">
                    <mxGeometry x="160" y="380" width="95" height="80" as="geometry"/>
                </mxCell>
                <mxCell id="17" value="&lt;font style=&quot;font-size: 16px;&quot; color=&quot;#000000&quot;&gt;nsj=PAR&lt;/font&gt;" style="rounded=0;whiteSpace=wrap;html=1;fontSize=18;fillColor=#b0e3e6;strokeColor=#0e8088;" vertex="1" parent="1">
                    <mxGeometry x="360" y="380" width="100" height="80" as="geometry"/>
                </mxCell>
                <mxCell id="18" value="" style="endArrow=classic;html=1;fontSize=18;fontColor=#000000;entryX=0.5;entryY=0;entryDx=0;entryDy=0;" edge="1" parent="1" target="16">
                    <mxGeometry width="50" height="50" relative="1" as="geometry">
                        <mxPoint x="210" y="300" as="sourcePoint"/>
                        <mxPoint x="370" y="400" as="targetPoint"/>
                    </mxGeometry>
                </mxCell>
                <mxCell id="19" value="" style="endArrow=classic;html=1;fontSize=18;fontColor=#000000;entryX=0.5;entryY=0;entryDx=0;entryDy=0;" edge="1" parent="1" target="17">
                    <mxGeometry width="50" height="50" relative="1" as="geometry">
                        <mxPoint x="410" y="300" as="sourcePoint"/>
                        <mxPoint x="370" y="400" as="targetPoint"/>
                    </mxGeometry>
                </mxCell>
                <mxCell id="20" value="" style="endArrow=none;html=1;fontSize=18;fontColor=#000000;exitX=0.5;exitY=1;exitDx=0;exitDy=0;" edge="1" parent="1" source="16">
                    <mxGeometry width="50" height="50" relative="1" as="geometry">
                        <mxPoint x="320" y="560" as="sourcePoint"/>
                        <mxPoint x="208" y="520" as="targetPoint"/>
                    </mxGeometry>
                </mxCell>
                <mxCell id="21" value="" style="endArrow=none;html=1;fontSize=18;fontColor=#000000;entryX=0.5;entryY=1;entryDx=0;entryDy=0;" edge="1" parent="1" target="17">
                    <mxGeometry width="50" height="50" relative="1" as="geometry">
                        <mxPoint x="410" y="520" as="sourcePoint"/>
                        <mxPoint x="370" y="510" as="targetPoint"/>
                    </mxGeometry>
                </mxCell>
                <mxCell id="22" value="" style="endArrow=none;html=1;fontSize=18;fontColor=#000000;" edge="1" parent="1">
                    <mxGeometry width="50" height="50" relative="1" as="geometry">
                        <mxPoint x="210" y="520" as="sourcePoint"/>
                        <mxPoint x="410" y="520" as="targetPoint"/>
                    </mxGeometry>
                </mxCell>
                <mxCell id="23" value="" style="endArrow=none;html=1;fontSize=18;fontColor=#000000;" edge="1" parent="1" target="24">
                    <mxGeometry width="50" height="50" relative="1" as="geometry">
                        <mxPoint x="320" y="520" as="sourcePoint"/>
                        <mxPoint x="320" y="560" as="targetPoint"/>
                    </mxGeometry>
                </mxCell>
                <mxCell id="29" value="" style="edgeStyle=none;html=1;fontSize=18;fontColor=#000000;" edge="1" parent="1" source="24" target="28">
                    <mxGeometry relative="1" as="geometry"/>
                </mxCell>
                <mxCell id="24" value="&lt;font color=&quot;#000000&quot;&gt;x es msj&lt;/font&gt;" style="shape=document;whiteSpace=wrap;html=1;boundedLbl=1;fontSize=18;fillColor=#ffcccc;strokeColor=#36393d;" vertex="1" parent="1">
                    <mxGeometry x="240" y="585" width="160" height="80" as="geometry"/>
                </mxCell>
                <mxCell id="28" value="&lt;font style=&quot;font-size: 15px;&quot; color=&quot;#000000&quot;&gt;FIN&lt;/font&gt;" style="ellipse;whiteSpace=wrap;html=1;fontSize=18;fillColor=#dae8fc;strokeColor=#6c8ebf;" vertex="1" parent="1">
                    <mxGeometry x="260" y="700" width="120" height="80" as="geometry"/>
                </mxCell>
            </root>
        </mxGraphModel>
    </diagram>
</mxfile>